PathFileType	4	(X / Y / Z)	Demo_140508_11_September_2019	Demo_140508_11_September_2019.trc
DataRate	CameraRate	NumFrames	NumMarkers	Units	OrigDataRate	OrigDataStartFrame	OrigNumFrames
50	50	14	25	m	50	1842	3585
Frame#	Time		SpineBase		SpineMid		Neck		Head		ShoulderLeft		ElbowLeft		WristLeft		HandLeft		ShoulderRight		ElbowRight		WristRight		HandRight		HipLeft		KneeLeft		AnkleLeft		FootLeft		HipRight		KneeRight		AnkleRight		FootRight		SpineShoulder		HandTipLeft		LeftThumb		HandTipRight		ThumbRight		
X1	Y1	Z1	X2	Y2	Z2	X3	Y3	Z3	X4	Y4	Z4	X5	Y5	Z5	X6	Y6	Z6	X7	Y7	Z7	X8	Y8	Z8	X9	Y9	Z9	X10	Y10	Z10	X11	Y11	Z11	X12	Y12	Z12	X13	Y13	Z13	X14	Y14	Z14	X15	Y15	Z15	X16	Y16	Z16	X17	Y17	Z17	X18	Y18	Z18	X19	Y19	Z19	X20	Y20	Z20	X21	Y21	Z21	X22	Y22	Z22	X23	Y23	Z23	X24	Y24	Z24	X25	Y25	Z25	
1793	49.499	0.063	0.725	1.566	0.054	1.022	1.536	0.042	1.311	1.488	0.055	1.458	1.471	-0.102	1.196	1.461	-0.159	0.938	1.456	-0.227	0.725	1.408	-0.225	0.674	1.419	0.238	1.204	1.522	0.485	1.323	1.549	0.617	1.498	1.525	0.622	1.519	1.523	-0.007	0.732	1.520	-0.054	0.492	1.534	-0.028	0.325	1.585	-0.021	0.303	1.511	0.130	0.730	1.543	0.172	0.502	1.574	0.118	0.276	1.754	0.126	0.195	1.655	0.045	1.241	1.502	-0.212	0.624	1.401	-0.197	0.670	1.395	0.704	1.627	1.535	0.617	1.562	1.516
1794	49.516	0.063	0.725	1.566	0.054	1.022	1.536	0.042	1.311	1.488	0.055	1.458	1.471	-0.102	1.196	1.461	-0.159	0.938	1.456	-0.227	0.725	1.408	-0.225	0.674	1.419	0.238	1.204	1.522	0.485	1.323	1.549	0.617	1.498	1.525	0.622	1.519	1.523	-0.007	0.732	1.520	-0.054	0.492	1.534	-0.028	0.325	1.585	-0.021	0.303	1.511	0.130	0.730	1.543	0.172	0.502	1.574	0.118	0.276	1.754	0.126	0.195	1.655	0.045	1.241	1.502	-0.212	0.624	1.401	-0.197	0.670	1.395	0.704	1.627	1.535	0.617	1.562	1.516
1795	49.532	0.061	0.727	1.564	0.053	1.023	1.535	0.042	1.311	1.488	0.055	1.458	1.471	-0.104	1.197	1.463	-0.160	0.936	1.467	-0.208	0.718	1.427	-0.204	0.662	1.436	0.241	1.207	1.525	0.482	1.344	1.546	0.594	1.529	1.520	0.626	1.593	1.527	-0.009	0.733	1.518	-0.050	0.494	1.538	-0.027	0.325	1.586	-0.023	0.303	1.511	0.128	0.731	1.542	0.163	0.505	1.577	0.118	0.277	1.764	0.127	0.193	1.663	0.044	1.241	1.502	-0.180	0.596	1.421	-0.160	0.675	1.410	0.681	1.685	1.536	0.629	1.638	1.521
1796	49.549	0.061	0.727	1.564	0.053	1.023	1.535	0.042	1.311	1.488	0.055	1.458	1.471	-0.104	1.197	1.463	-0.160	0.936	1.467	-0.208	0.718	1.427	-0.204	0.662	1.436	0.241	1.207	1.525	0.482	1.344	1.546	0.594	1.529	1.520	0.626	1.593	1.527	-0.009	0.733	1.518	-0.050	0.494	1.538	-0.027	0.325	1.586	-0.023	0.303	1.511	0.128	0.731	1.542	0.163	0.505	1.577	0.118	0.277	1.764	0.127	0.193	1.663	0.044	1.241	1.502	-0.180	0.596	1.421	-0.160	0.675	1.410	0.681	1.685	1.536	0.629	1.638	1.521
1797	49.566	0.060	0.729	1.564	0.052	1.024	1.536	0.042	1.312	1.491	0.054	1.458	1.472	-0.104	1.199	1.473	-0.158	0.932	1.481	-0.196	0.714	1.438	-0.188	0.654	1.447	0.254	1.235	1.536	0.480	1.360	1.545	0.581	1.547	1.522	0.590	1.565	1.528	-0.010	0.736	1.518	-0.038	0.494	1.551	-0.022	0.323	1.592	-0.025	0.303	1.512	0.126	0.734	1.542	0.155	0.508	1.584	0.118	0.275	1.773	0.127	0.191	1.672	0.044	1.242	1.504	-0.167	0.581	1.429	-0.140	0.678	1.416	0.655	1.679	1.530	0.543	1.611	1.515
1798	49.582	0.060	0.729	1.564	0.052	1.024	1.536	0.042	1.312	1.491	0.054	1.458	1.472	-0.104	1.199	1.473	-0.158	0.932	1.481	-0.196	0.714	1.438	-0.188	0.654	1.447	0.254	1.235	1.536	0.480	1.360	1.545	0.581	1.547	1.522	0.590	1.565	1.528	-0.010	0.736	1.518	-0.038	0.494	1.551	-0.022	0.323	1.592	-0.025	0.303	1.512	0.126	0.734	1.542	0.155	0.508	1.584	0.118	0.275	1.773	0.127	0.191	1.672	0.044	1.242	1.504	-0.167	0.581	1.429	-0.140	0.678	1.416	0.655	1.679	1.530	0.543	1.611	1.515
1799	49.599	0.059	0.732	1.565	0.052	1.027	1.539	0.042	1.313	1.498	0.053	1.458	1.474	-0.103	1.200	1.486	-0.156	0.928	1.496	-0.182	0.709	1.450	-0.176	0.649	1.455	0.259	1.247	1.540	0.474	1.365	1.545	0.575	1.547	1.525	0.589	1.557	1.534	-0.010	0.740	1.521	-0.030	0.497	1.563	-0.020	0.320	1.598	-0.025	0.303	1.512	0.126	0.737	1.542	0.148	0.510	1.598	0.118	0.270	1.787	0.127	0.188	1.684	0.044	1.243	1.510	-0.160	0.574	1.434	-0.130	0.678	1.420	0.649	1.665	1.530	0.511	1.604	1.523
1800	49.616	0.059	0.732	1.565	0.052	1.027	1.539	0.042	1.313	1.498	0.053	1.458	1.474	-0.103	1.200	1.486	-0.156	0.928	1.496	-0.182	0.709	1.450	-0.176	0.649	1.455	0.259	1.247	1.540	0.474	1.365	1.545	0.575	1.547	1.525	0.589	1.557	1.534	-0.010	0.740	1.521	-0.030	0.497	1.563	-0.020	0.320	1.598	-0.025	0.303	1.512	0.126	0.737	1.542	0.148	0.510	1.598	0.118	0.270	1.787	0.127	0.188	1.684	0.044	1.243	1.510	-0.160	0.574	1.434	-0.130	0.678	1.420	0.649	1.665	1.530	0.511	1.604	1.523
1801	49.632	0.062	0.739	1.577	0.054	1.031	1.549	0.044	1.315	1.509	0.052	1.459	1.478	-0.101	1.201	1.501	-0.152	0.926	1.511	-0.171	0.706	1.460	-0.165	0.645	1.461	0.262	1.253	1.543	0.469	1.361	1.546	0.580	1.533	1.535	0.638	1.552	1.544	-0.006	0.746	1.538	-0.024	0.497	1.574	-0.019	0.317	1.603	-0.025	0.303	1.514	0.127	0.742	1.550	0.145	0.510	1.618	0.119	0.264	1.801	0.127	0.184	1.694	0.046	1.245	1.521	-0.156	0.569	1.437	-0.120	0.670	1.423	0.684	1.628	1.544	0.603	1.570	1.529
1802	49.649	0.062	0.739	1.577	0.054	1.031	1.549	0.044	1.315	1.509	0.052	1.459	1.478	-0.101	1.201	1.501	-0.152	0.926	1.511	-0.171	0.706	1.460	-0.165	0.645	1.461	0.262	1.253	1.543	0.469	1.361	1.546	0.580	1.533	1.535	0.638	1.552	1.544	-0.006	0.746	1.538	-0.024	0.497	1.574	-0.019	0.317	1.603	-0.025	0.303	1.514	0.127	0.742	1.550	0.145	0.510	1.618	0.119	0.264	1.801	0.127	0.184	1.694	0.046	1.245	1.521	-0.156	0.569	1.437	-0.120	0.670	1.423	0.684	1.628	1.544	0.603	1.570	1.529
1803	49.666	0.068	0.744	1.597	0.058	1.034	1.566	0.047	1.316	1.522	0.052	1.459	1.485	-0.097	1.202	1.517	-0.148	0.924	1.526	-0.163	0.704	1.468	-0.157	0.640	1.465	0.264	1.257	1.546	0.467	1.334	1.557	0.602	1.492	1.551	0.655	1.507	1.556	0.000	0.750	1.561	-0.020	0.496	1.585	-0.018	0.314	1.607	-0.023	0.304	1.517	0.132	0.749	1.567	0.146	0.508	1.641	0.119	0.256	1.816	0.126	0.180	1.707	0.050	1.247	1.535	-0.153	0.566	1.440	-0.114	0.664	1.426	0.734	1.554	1.567	0.602	1.536	1.551
1804	49.683	0.068	0.744	1.597	0.058	1.034	1.566	0.047	1.316	1.522	0.052	1.459	1.485	-0.097	1.202	1.517	-0.148	0.924	1.526	-0.163	0.704	1.468	-0.157	0.640	1.465	0.264	1.257	1.546	0.467	1.334	1.557	0.602	1.492	1.551	0.655	1.507	1.556	0.000	0.750	1.561	-0.020	0.496	1.585	-0.018	0.314	1.607	-0.023	0.304	1.517	0.132	0.749	1.567	0.146	0.508	1.641	0.119	0.256	1.816	0.126	0.180	1.707	0.050	1.247	1.535	-0.153	0.566	1.440	-0.114	0.664	1.426	0.734	1.554	1.567	0.602	1.536	1.551
1805	49.699	0.074	0.746	1.619	0.063	1.036	1.583	0.051	1.316	1.535	0.052	1.460	1.493	-0.094	1.203	1.530	-0.143	0.922	1.540	-0.155	0.701	1.477	-0.148	0.630	1.469	0.266	1.259	1.551	0.471	1.303	1.570	0.646	1.423	1.569	0.668	1.427	1.571	0.007	0.751	1.583	-0.018	0.496	1.595	-0.018	0.312	1.611	-0.021	0.304	1.520	0.138	0.751	1.588	0.152	0.506	1.666	0.120	0.249	1.830	0.125	0.176	1.718	0.054	1.248	1.549	-0.150	0.562	1.442	-0.111	0.660	1.429	0.754	1.451	1.574	0.625	1.468	1.569
1806	49.716	0.074	0.746	1.619	0.063	1.036	1.583	0.051	1.316	1.535	0.052	1.460	1.493	-0.094	1.203	1.530	-0.143	0.922	1.540	-0.155	0.701	1.477	-0.148	0.630	1.469	0.266	1.259	1.551	0.471	1.303	1.570	0.646	1.423	1.569	0.668	1.427	1.571	0.007	0.751	1.583	-0.018	0.496	1.595	-0.018	0.312	1.611	-0.021	0.304	1.520	0.138	0.751	1.588	0.152	0.506	1.666	0.120	0.249	1.830	0.125	0.176	1.718	0.054	1.248	1.549	-0.150	0.562	1.442	-0.111	0.660	1.429	0.754	1.451	1.574	0.625	1.468	1.569
